<?xml version="1.0" standalone="no"?>
<!DOCTYPE svg PUBLIC "-//W3C//DTD SVG 20010904//EN"
 "http://www.w3.org/TR/2001/REC-SVG-20010904/DTD/svg10.dtd">
<svg version="1.0" xmlns="http://www.w3.org/2000/svg"
 width="442.000000pt" height="442.000000pt" viewBox="0 0 442.000000 442.000000"
 preserveAspectRatio="xMidYMid meet">
<metadata>
Created by potrace 1.14, written by Peter Selinger 2001-2017
</metadata>
<g transform="translate(0.000000,442.000000) scale(0.100000,-0.100000)"
fill="#000000" stroke="none">
<path d="M205 3751 c-69 -17 -135 -67 -172 -129 l-28 -47 0 -1432 0 -1432 23
-23 c22 -23 27 -23 243 -23 l221 0 24 30 24 30 0 630 0 631 303 -2 c298 -2
324 -3 422 -26 168 -38 265 -138 301 -309 8 -39 14 -188 19 -474 2 -148 6
-279 9 -291 2 -11 7 -46 10 -77 8 -70 18 -96 46 -122 21 -19 36 -20 236 -20
l214 0 26 27 c23 23 27 34 26 80 -1 29 -4 67 -6 83 -9 57 -18 271 -21 505 -4
322 -17 402 -86 549 -34 73 -53 98 -129 171 -49 47 -92 97 -95 112 -9 35 16
81 57 105 127 75 248 247 287 408 23 97 30 267 16 370 -32 216 -152 407 -330
521 -117 74 -233 115 -425 151 -51 9 -1179 13 -1215 4z m1080 -447 c68 -13 89
-20 150 -52 125 -64 193 -180 199 -341 10 -240 -105 -405 -318 -457 -100 -24
-167 -28 -449 -28 l-269 -1 -29 33 -29 32 0 378 c1 402 2 411 50 437 33 18
599 17 695 -1z"/>
<path d="M2469 3707 c0 -29 0 -705 -1 -1503 0 -1313 2 -1455 16 -1483 32 -61
-12 -58 952 -57 865 1 882 1 904 21 39 36 43 46 62 190 19 140 15 175 -21 207
-17 16 -39 29 -49 29 -9 1 -262 3 -562 4 -355 2 -557 6 -578 13 -58 19 -119
73 -149 132 l-28 55 -1 1170 c-1 643 -2 1178 -3 1187 0 10 -14 32 -30 50 l-29
33 -241 2 -241 1 -1 -51z"/>
</g>
</svg>
